<svg xmlns="http://www.w3.org/2000/svg" xmlns:xlink="http://www.w3.org/1999/xlink" viewBox="0 0 415.76 70.53"><defs><style>.cls-1{fill:#253c7d;}.cls-2{fill:url(#linear-gradient);}.cls-3{fill:url(#linear-gradient-2);}.cls-4{font-size:9.82px;fill:#777a8c;font-family:Heebo-Regular, Heebo;letter-spacing:0.45em;}.cls-5{letter-spacing:0.42em;}.cls-6{letter-spacing:0.46em;}</style><linearGradient id="linear-gradient" x1="27.34" y1="71.47" x2="74.22" y2="-6.19" gradientUnits="userSpaceOnUse"><stop offset="0" stop-color="#00aa95"/><stop offset="1" stop-color="#0387bd"/></linearGradient><linearGradient id="linear-gradient-2" x1="19.99" y1="67.03" x2="66.88" y2="-10.62" xlink:href="#linear-gradient"/></defs><g id="Layer_2" data-name="Layer 2"><g id="Layer_1-2" data-name="Layer 1"><path class="cls-1" d="M122.73,22.35a8,8,0,0,1-5.09,5.85c3.34,1.08,3.89,4.85,3.52,6.75-1.34,6.76-6.83,8.92-13.11,8.92H93.67l6-30.31H114C120,13.56,123.94,16.25,122.73,22.35ZM100.35,38.54h8.75c2.34,0,5.83-.77,6.39-3.63s-2.51-4.16-4.85-4.16h-8.75Zm2.53-12.81h8.75c3.6,0,5.06-1.52,5.41-3.25.27-1.38-.4-3.72-4-3.72h-8.75Z"/><path class="cls-1" d="M150.89,40.06a19.24,19.24,0,0,1-12.4,4.5c-11.26,0-14.5-7.75-13-15.63a19.39,19.39,0,0,1,19.22-16,12.77,12.77,0,0,1,10.22,4.63l-4.54,3.68a8.56,8.56,0,0,0-6.75-2.86,12.64,12.64,0,0,0-12.52,10.52c-.95,5,.92,10.27,8.42,10.27a13.49,13.49,0,0,0,8.22-3.08Z"/><path class="cls-1" d="M175.84,33.22a13.54,13.54,0,0,1-13.32,11.13c-6.93,0-10.1-5-8.89-11.13a13.59,13.59,0,0,1,13.24-11.13C173.67,22.09,177.05,27.11,175.84,33.22Zm-16.93,0c-.64,3.25.71,6.28,4.57,6.28s6.4-3,7-6.28-1-6.32-4.56-6.32C162.15,26.9,159.54,30,158.91,33.22Z"/><path class="cls-1" d="M191.58,43.87l2.26-11.43c.55-2.81-.41-5.37-3.32-5.37s-5.05,2.56-5.6,5.37l-2.26,11.43h-5.28l4.22-21.39h4.89l-.12,2.6a7.68,7.68,0,0,1,6.21-2.94c2.56,0,4.9,1,5.54,4a9.6,9.6,0,0,1,7.91-3.9c6.06,0,8.32,3.73,7.05,10.13l-2.27,11.52h-5.28l2.27-11.52c.55-2.81-.14-5.19-3-5.19s-5.12,2.47-5.68,5.28l-2.25,11.43Z"/><path class="cls-1" d="M214,52.79l6-30.26h4.93l-.23,2.94a10.47,10.47,0,0,1,7.6-3.42c6.59,0,10,4.89,8.76,11.17s-6.15,11.17-13,11.17c-2.25,0-5.45-.69-6.51-3l-2.25,11.43Zm21.75-19.57c.66-3.33-1-6.06-4.87-6.06a7.35,7.35,0,0,0-7.25,6.06c-.66,3.33,1.27,6.06,4.86,6.06A7.55,7.55,0,0,0,235.73,33.22Z"/><path class="cls-1" d="M249.05,35.08c-.18,2.64,1.74,4.55,5.47,4.55a10.57,10.57,0,0,0,6.11-2L263.35,41a15.74,15.74,0,0,1-9.87,3.46c-7.36,0-10.84-4.54-9.49-11.38a13.55,13.55,0,0,1,13.55-11.17c7.15,0,10.74,4.41,8.18,13.2Zm12.47-4.37c.2-2.77-1.7-4.16-4.73-4.16A7.27,7.27,0,0,0,250,30.71Z"/><path class="cls-1" d="M280,16.51l-1.19,6.06h5.89l-.9,4.54h-5.93L276,36.34c-.4,2,.53,3,2.17,3a6.88,6.88,0,0,0,2.68-.65l.59,4.5a13.07,13.07,0,0,1-4.55.91c-4.67.17-7.18-2.47-6.13-7.79l1.82-9.23h-4l.9-4.54h4l1.08-5.5Z"/><path class="cls-1" d="M293.94,22.44l-4.23,21.43h-5.29l4.23-21.43Zm-4.59-5.93c-.81,4.11,5.42,4.11,6.23,0S290.16,12.39,289.35,16.51Z"/><path class="cls-1" d="M307.32,16.51l-1.2,6.06H312l-.9,4.54h-5.93l-1.82,9.23c-.4,2,.53,3,2.18,3a6.92,6.92,0,0,0,2.68-.65l.58,4.5a13,13,0,0,1-4.55.91c-4.67.17-7.18-2.47-6.13-7.79l1.82-9.23h-4l.89-4.54h4l1.08-5.5Z"/><path class="cls-1" d="M321.26,22.44,317,43.87h-5.28L316,22.44Zm-4.59-5.93c-.81,4.11,5.43,4.11,6.24,0S317.48,12.39,316.67,16.51Z"/><path class="cls-1" d="M348.14,22.48,334.81,44H329.1l-4.91-21.48H330l1.55,7.06,1.51,9,5-8.91,4.35-7.15Z"/><path class="cls-1" d="M352.71,35.08c-.17,2.64,1.75,4.55,5.47,4.55a10.52,10.52,0,0,0,6.11-2L367,41a15.69,15.69,0,0,1-9.86,3.46c-7.36,0-10.84-4.54-9.49-11.38a13.55,13.55,0,0,1,13.55-11.17c7.14,0,10.73,4.41,8.18,13.2Zm12.47-4.37c.2-2.77-1.69-4.16-4.72-4.16a7.29,7.29,0,0,0-6.8,4.16Z"/><path class="cls-1" d="M378.37,41.14c-.82,4.12-7.05,4.12-6.24,0S379.18,37,378.37,41.14Z"/><path class="cls-1" d="M391.71,22.44l-4.23,21.43H382.2l4.23-21.43Zm-4.59-5.93c-.81,4.11,5.43,4.11,6.24,0S387.94,12.39,387.12,16.51Z"/><path class="cls-1" d="M408,43.87l2.2-11.17c.64-3.25-.65-5.71-4-5.71s-6,2.72-6.64,6l-2.15,10.91h-5.24l4.22-21.39h4.72l-.23,2.9c2.59-2.12,5-3.2,7.65-3.2,5,0,8.31,3.77,7,10.48l-2.21,11.21Z"/><path class="cls-2" d="M76.78,11.16,51.16,58.55l-23.94-.09a5.21,5.21,0,0,1-4.58-2.56l-1-1.61,26.89.05L74.65,5.88Z"/><path class="cls-3" d="M81.36,22.52,56.47,69H16.6a6.65,6.65,0,0,1-5.72-3.26l-9-15.25A13.31,13.31,0,0,1,1.72,37.2l17.92-32A10.27,10.27,0,0,1,28.47,0H72.18L45.85,48.15l-22.65.77a4.64,4.64,0,0,1-4.09-7.09l8.55-13.66-10.89-.48L39.68,9.39l4.61,19.8-9.06-.48,2.15-3.47,2.33.17-2.25-9.63L26.35,24.6l7.93.38L22.89,44a.61.61,0,0,0,.54.92l19.78-1L64.92,4.3l-36.24.06a6.21,6.21,0,0,0-5.34,3.16L4.85,40.45a6.69,6.69,0,0,0,.07,6.73l8.89,15a5.07,5.07,0,0,0,4.37,2.49H53.92L79.27,17.33Z"/><text class="cls-4" transform="matrix(0.98, 0, -0.22, 0.98, 91.68, 67.32)">B SMA<tspan class="cls-5" x="51.46" y="0">R</tspan><tspan x="61.67" y="0">T, BE COMP</tspan><tspan class="cls-6" x="158.13" y="0">E</tspan><tspan x="168.23" y="0">TITIVE</tspan></text></g></g></svg>