<svg width="199" height="32" viewBox="0 0 199 32" fill="none" xmlns="http://www.w3.org/2000/svg">
<g clip-path="url(#clip0_560_177)">
<path d="M58.7436 10.3487C58.6082 10.963 58.3135 11.5339 57.8873 12.0077C57.4612 12.4816 56.9174 12.8428 56.3073 13.0574C57.9059 13.5575 58.1692 15.3031 57.9921 16.1829C57.3507 19.313 54.723 20.3131 51.7171 20.3131H44.8342L47.7061 6.27869H54.565C57.4369 6.27869 59.3227 7.52424 58.7436 10.3487ZM48.0316 17.8452H52.2197C53.3397 17.8452 55.0101 17.4886 55.2782 16.1644C55.5462 14.8401 54.0768 14.2382 52.9568 14.2382H48.7687L48.0316 17.8452ZM49.2425 11.9138H53.4306C55.1537 11.9138 55.8526 11.21 56.0201 10.4089C56.1493 9.76993 55.8286 8.68644 54.1055 8.68644H49.9174L49.2425 11.9138Z" fill="white"/>
<path d="M72.2223 18.549C70.5595 19.8984 68.4575 20.6363 66.2871 20.6326C60.8976 20.6326 59.3468 17.0441 60.0648 13.3954C60.4477 11.3089 61.5813 9.42062 63.2649 8.06477C64.9486 6.70893 67.0737 5.97292 69.2643 5.98697C70.1946 5.96046 71.1188 6.1398 71.9666 6.51134C72.8143 6.88287 73.5632 7.43677 74.156 8.1308L71.983 9.83475C71.5794 9.39634 71.0802 9.05012 70.5215 8.8211C69.9628 8.59209 69.3584 8.48599 68.7521 8.51048C67.3187 8.50401 65.9294 8.99014 64.8319 9.88224C63.7344 10.7743 63 12.0145 62.7595 13.3816C62.3048 15.6967 63.1999 18.1369 66.7897 18.1369C68.2289 18.0991 69.6137 17.5971 70.7241 16.7107L72.2223 18.549Z" fill="white"/>
<path d="M84.1643 15.3819C83.894 16.8273 83.1076 18.1351 81.9425 19.0769C80.7773 20.0188 79.3072 20.535 77.7888 20.5354C74.4718 20.5354 72.9545 18.2202 73.5336 15.3819C73.807 13.9446 74.589 12.6442 75.7453 11.7039C76.9017 10.7635 78.3603 10.2418 79.8708 10.2283C83.1256 10.2283 84.7434 12.5527 84.1643 15.3819ZM76.0609 15.3819C75.7545 16.8867 76.4007 18.2897 78.2482 18.2897C80.0958 18.2897 81.3116 16.9006 81.5987 15.3819C81.8859 13.8631 81.1201 12.4555 79.4161 12.4555C77.6117 12.4555 76.3624 13.8909 76.0609 15.3819Z" fill="white"/>
<path d="M91.6981 20.3131L92.7798 15.0207C93.0431 13.7196 92.5836 12.5342 91.1907 12.5342C89.7979 12.5342 88.7736 13.7196 88.5103 15.0207L87.4286 20.3131H84.9014L86.9212 10.4089H89.2618L89.2043 11.6128C89.5565 11.1782 90.0085 10.8289 90.5244 10.5926C91.0403 10.3564 91.606 10.2395 92.1767 10.2515C93.402 10.2515 94.5221 10.7145 94.8284 12.1036C95.2643 11.5318 95.8356 11.0694 96.4944 10.7552C97.1531 10.441 97.8801 10.2842 98.6144 10.2978C101.515 10.2978 102.597 12.0249 101.989 14.9883L100.902 20.3224H98.3751L99.4616 14.9883C99.7249 13.6872 99.3946 12.5851 98.0257 12.5851C96.6568 12.5851 95.5751 13.7288 95.307 15.0299L94.2301 20.3224L91.6981 20.3131Z" fill="white"/>
<path d="M102.429 24.4433L105.301 10.4321H107.661L107.551 11.7934C108.013 11.3026 108.574 10.9088 109.2 10.6364C109.825 10.364 110.502 10.2188 111.188 10.2098C114.343 10.2098 115.975 12.474 115.381 15.3819C114.788 18.2897 112.438 20.5539 109.159 20.5539C108.082 20.5539 106.55 20.2344 106.043 19.1648L104.966 24.4572L102.429 24.4433ZM112.84 15.3819C113.156 13.84 112.361 12.5759 110.509 12.5759C109.682 12.5744 108.88 12.8548 108.246 13.3679C107.611 13.8811 107.184 14.5941 107.039 15.3819C106.723 16.9237 107.646 18.1878 109.365 18.1878C110.186 18.1708 110.977 17.8836 111.607 17.3735C112.237 16.8634 112.668 16.1609 112.83 15.3819H112.84Z" fill="white"/>
<path d="M119.206 16.2431C119.119 17.4655 120.038 18.3499 121.824 18.3499C122.874 18.3424 123.897 18.0188 124.748 17.4238L126.05 18.9842C124.71 20.0236 123.043 20.5888 121.326 20.5863C117.803 20.5863 116.138 18.4842 116.784 15.317C117.054 13.8504 117.855 12.5247 119.043 11.5771C120.231 10.6295 121.73 10.1219 123.269 10.145C126.692 10.145 128.41 12.1869 127.185 16.257L119.206 16.2431ZM125.174 14.2196C125.27 12.9371 124.361 12.2934 122.91 12.2934C122.234 12.2739 121.566 12.4457 120.988 12.7878C120.411 13.1299 119.95 13.6275 119.66 14.2196H125.174Z" fill="white"/>
<path d="M134.02 7.64462L133.45 10.4506H136.269L135.838 12.5527H133L132.105 16.8265C131.914 17.7526 132.359 18.2156 133.144 18.2156C133.588 18.2 134.024 18.0977 134.426 17.9146L134.709 19.9983C134.015 20.2632 133.277 20.4059 132.531 20.4196C130.296 20.4983 129.094 19.2759 129.597 16.8126L130.468 12.5388H128.553L128.984 10.4367H130.899L131.416 7.89003L134.02 7.64462Z" fill="white"/>
<path d="M140.692 10.3904L138.667 20.3131H136.135L138.16 10.3904H140.692ZM138.495 7.64463C138.107 9.54769 141.089 9.54769 141.477 7.64463C141.865 5.74158 138.883 5.73695 138.495 7.64463Z" fill="white"/>
<path d="M147.096 7.64462L146.522 10.4506H149.336L148.905 12.5527H146.067L145.196 16.8265C145.004 17.7526 145.449 18.2156 146.239 18.2156C146.683 18.1995 147.12 18.0972 147.522 17.9146L147.8 19.9983C147.106 20.2639 146.368 20.4066 145.622 20.4196C143.387 20.4983 142.185 19.2759 142.688 16.8126L143.559 12.5388H141.644L142.07 10.4367H143.985L144.502 7.89003L147.096 7.64462Z" fill="white"/>
<path d="M153.768 10.3904L151.729 20.3131H149.202L151.251 10.3904H153.768ZM151.571 7.64463C151.184 9.54769 154.17 9.54769 154.558 7.64463C154.946 5.74158 151.959 5.73695 151.571 7.64463Z" fill="white"/>
<path d="M166.634 10.4089L160.254 20.3733H157.521L155.171 10.4274H157.952L158.694 13.6964L159.416 17.8637L161.81 13.7381L163.892 10.4274L166.634 10.4089Z" fill="white"/>
<path d="M168.822 16.2431C168.74 17.4655 169.659 18.3499 171.44 18.3499C172.491 18.344 173.513 18.0202 174.364 17.4238L175.661 18.9842C174.324 20.0242 172.658 20.5896 170.942 20.5863C167.419 20.5863 165.753 18.4842 166.4 15.317C166.67 13.8504 167.471 12.5247 168.659 11.5771C169.847 10.6295 171.345 10.1219 172.885 10.145C176.303 10.145 178.021 12.1869 176.801 16.257L168.822 16.2431ZM174.79 14.2196C174.886 12.9371 173.981 12.2934 172.531 12.2934C171.854 12.2741 171.185 12.446 170.607 12.7881C170.029 13.1301 169.567 13.6275 169.276 14.2196H174.79Z" fill="white"/>
<path d="M181.103 19.049C180.711 20.9567 177.729 20.9567 178.117 19.049C178.504 17.1414 181.491 17.1321 181.103 19.049Z" fill="white"/>
<path d="M187.489 10.3904L185.464 20.3131H182.937L184.961 10.3904H187.489ZM185.292 7.64463C184.904 9.54769 187.891 9.54769 188.278 7.64463C188.666 5.74158 185.684 5.73695 185.292 7.64463Z" fill="white"/>
<path d="M195.286 20.3131L196.339 15.1411C196.645 13.6362 196.028 12.4972 194.424 12.4972C192.821 12.4972 191.552 13.7566 191.246 15.2754L190.217 20.327H187.709L189.729 10.4228H191.988L191.878 11.7656C193.117 10.784 194.271 10.2839 195.539 10.2839C197.933 10.2839 199.517 12.0295 198.89 15.1365L197.832 20.327L195.286 20.3131Z" fill="white"/>
<path d="M36.7502 5.16742L24.4874 27.1104L13.0287 27.0687C12.5876 27.0764 12.1523 26.9707 11.7671 26.7625C11.382 26.5543 11.0609 26.2509 10.8366 25.8834L10.3579 25.1379L23.2286 25.1611L35.7307 2.72263L36.7502 5.16742Z" fill="url(#paint0_linear_560_177)"/>
<path d="M38.9423 10.4274L27.0289 31.9491H7.94544C7.3929 31.949 6.84991 31.8098 6.36987 31.5451C5.88983 31.2804 5.48927 30.8994 5.2076 30.4396L0.899832 23.3784C0.33077 22.4491 0.0241565 21.3915 0.0107157 20.3115C-0.00272519 19.2314 0.277478 18.167 0.823249 17.2247L9.4005 2.40776C9.82539 1.68359 10.4394 1.08005 11.1811 0.657508C11.9228 0.234965 12.7662 0.0082359 13.6269 0L34.5483 0L21.9457 22.2949L11.1045 22.6514C10.7024 22.6641 10.3044 22.5709 9.95282 22.3818C9.60126 22.1927 9.3094 21.9147 9.1084 21.5777C8.9074 21.2406 8.8048 20.857 8.81157 20.468C8.81834 20.0789 8.93421 19.6989 9.14682 19.3685L13.2392 13.0436L8.0268 12.8213L18.9925 4.34785L21.199 13.5158L16.8625 13.2936L17.8916 11.6869L19.0068 11.7656L17.9299 7.30661L12.6122 11.3905L16.4078 11.5665L10.9561 20.3733C10.9296 20.4167 10.9156 20.4662 10.9155 20.5166C10.9155 20.567 10.9293 20.6165 10.9557 20.6599C10.9821 20.7034 11.02 20.7392 11.0655 20.7637C11.111 20.7882 11.1625 20.8005 11.2146 20.7993L20.6821 20.3363L31.0734 1.99103L13.7274 2.01881C13.2062 2.02446 12.6956 2.16263 12.247 2.41945C11.7984 2.67626 11.4275 3.0427 11.1715 3.48199L2.3214 18.7296C2.04185 19.2055 1.89769 19.7446 1.90357 20.292C1.90946 20.8394 2.06519 21.3755 2.3549 21.8458L6.61002 28.7912C6.82487 29.1428 7.13082 29.4341 7.49765 29.6363C7.86448 29.8385 8.27949 29.9446 8.70169 29.9441H25.8083L37.9419 8.02431L38.9423 10.4274Z" fill="url(#paint1_linear_560_177)"/>
<path d="M45.2796 29.2264L45.3753 28.7912H46.3613C46.5855 28.7962 46.806 28.7348 46.9931 28.6152C47.1676 28.498 47.2891 28.3208 47.333 28.1198C47.3639 28.036 47.3717 27.9458 47.3558 27.8581C47.3398 27.7705 47.3006 27.6883 47.242 27.6197C47.0714 27.5015 46.8622 27.4472 46.6533 27.4669H45.8157L44.9541 31.1712H44.3845L45.3418 27.0039H46.7777C47.1191 26.9786 47.4587 27.0722 47.735 27.2678C47.8419 27.3789 47.9149 27.5164 47.9462 27.6651C47.9774 27.8138 47.9656 27.9679 47.9121 28.1105C47.8701 28.2815 47.7864 28.4403 47.668 28.5736C47.5339 28.7166 47.371 28.8316 47.1894 28.9116C46.9997 29.001 46.7958 29.0589 46.5863 29.0829L46.3565 29.2125L45.2796 29.2264ZM44.5999 31.1712L45.0307 30.7081H45.988C46.2303 30.716 46.4682 30.6442 46.6629 30.5044C46.8405 30.3683 46.964 30.1768 47.0123 29.9627C47.0457 29.8303 47.0457 29.6921 47.0123 29.5598C46.9981 29.5053 46.9725 29.4542 46.9371 29.4096C46.9017 29.365 46.8572 29.3279 46.8064 29.3005C46.669 29.2324 46.5155 29.2005 46.3613 29.2079H45.5476L45.6577 28.7727H46.7682L46.8495 28.9301C47.0233 28.9391 47.1902 28.9989 47.3282 29.1014C47.4504 29.1908 47.5367 29.3185 47.5723 29.4626C47.6154 29.6235 47.6154 29.7925 47.5723 29.9534C47.5046 30.3156 47.2912 30.637 46.9788 30.847C46.6526 31.0552 46.2685 31.1618 45.8779 31.1526L44.5999 31.1712Z" fill="#777A8C"/>
<path d="M57.6045 30.1201C57.6386 30.0114 57.6386 29.8954 57.6045 29.7867C57.5507 29.6813 57.4635 29.5953 57.3556 29.5413C57.1721 29.4446 56.9778 29.3685 56.7765 29.3144C56.5959 29.2613 56.4199 29.1947 56.25 29.1153C56.1113 29.0476 55.9838 28.9602 55.8718 28.856C55.7781 28.7622 55.7091 28.6478 55.6708 28.5226C55.6358 28.3811 55.6358 28.2336 55.6708 28.092C55.7192 27.8733 55.8284 27.6716 55.9867 27.5086C56.1548 27.3343 56.3608 27.1983 56.5898 27.1104C56.8427 27.0076 57.1149 26.9572 57.3891 26.9622C57.6624 26.9511 57.9337 27.0119 58.1741 27.1382C58.3597 27.2439 58.503 27.407 58.581 27.6012C58.6548 27.7972 58.6665 28.01 58.6145 28.2124H58.0401C58.0788 28.076 58.0788 27.9321 58.0401 27.7957C58.0003 27.673 57.9128 27.57 57.796 27.5086C57.6388 27.4327 57.464 27.3976 57.2886 27.4067C57.1119 27.4017 56.936 27.4316 56.7717 27.4947C56.6387 27.5452 56.5204 27.6263 56.4271 27.7309C56.342 27.8324 56.2815 27.951 56.25 28.0781C56.2237 28.1822 56.2355 28.2918 56.2835 28.3884C56.3459 28.4928 56.4392 28.5767 56.5515 28.6291C56.7168 28.7172 56.8918 28.7871 57.0732 28.8375C57.3297 28.9048 57.5748 29.0078 57.8008 29.1431C57.9653 29.2376 58.0944 29.3803 58.1693 29.5506C58.2253 29.7334 58.2253 29.928 58.1693 30.1108C58.1186 30.332 58.006 30.5354 57.8438 30.6989C57.6728 30.8719 57.4633 31.0049 57.2312 31.0878C56.9695 31.1818 56.6918 31.2274 56.4127 31.2221C56.2198 31.2246 56.0276 31.198 55.8431 31.1434C55.6677 31.097 55.5045 31.0149 55.3645 30.9026C55.234 30.7997 55.1361 30.6633 55.0821 30.509C55.0286 30.3306 55.0286 30.1411 55.0821 29.9627H55.6564C55.6227 30.084 55.6227 30.2118 55.6564 30.3331C55.6871 30.431 55.7471 30.518 55.8288 30.5831C55.9163 30.654 56.0195 30.7047 56.1303 30.7313C56.2552 30.7633 56.384 30.7789 56.5132 30.7776C56.6905 30.7804 56.867 30.7538 57.0349 30.6989C57.1754 30.6518 57.3019 30.5724 57.4035 30.4674C57.5041 30.373 57.574 30.2523 57.6045 30.1201Z" fill="#777A8C"/>
<path d="M62.8359 27.0178L62.3286 29.5506L61.9504 31.1712H61.3809L62.3381 27.0039L62.8359 27.0178ZM63.0848 27.0178L63.6927 30.4118L65.8849 27.0178H66.4401L63.731 31.1851H63.3002L62.5248 27.0178H63.0848ZM66.622 27.0178L65.6647 31.1851H65.0951L65.4732 29.5645L66.1433 27.0317L66.622 27.0178Z" fill="#777A8C"/>
<path d="M69.5465 31.1712H68.9578L71.5616 27.0039H71.9397L71.844 27.3697L69.5465 31.1712ZM72.337 30.0969H69.9438L70.0491 29.6339H72.4423L72.337 30.0969ZM71.6094 27.3975L71.6908 27.0317H72.0641L72.739 31.199H72.1551L71.6094 27.3975Z" fill="#777A8C"/>
<path d="M78.4206 27.0178C78.6917 27.0071 78.9618 27.0562 79.2104 27.1613C79.3992 27.2444 79.5469 27.3956 79.622 27.5827C79.6931 27.8044 79.6931 28.0417 79.622 28.2633C79.5775 28.4518 79.4945 28.6297 79.3779 28.7866C79.268 28.9363 79.132 29.0664 78.9759 29.1709C78.7947 29.2831 78.5959 29.366 78.3871 29.4163L78.2148 29.4765H76.8794L76.9799 29.0135H77.9803C78.1561 29.0244 78.3323 28.9992 78.4972 28.9394C78.6403 28.873 78.7663 28.7765 78.8658 28.6569C78.9589 28.5411 79.0243 28.4066 79.0572 28.2633C79.0893 28.1669 79.0982 28.0646 79.0832 27.9643C79.0683 27.864 79.03 27.7684 78.9711 27.6846C78.8865 27.6019 78.7833 27.5392 78.6696 27.5014C78.5558 27.4637 78.4346 27.4519 78.3153 27.4669H77.4634L76.6018 31.1712H76.0322L76.9895 27.0039L78.4206 27.0178ZM77.942 29.2913H78.5403L79.1625 31.1434V31.1758H78.5499L77.942 29.2913Z" fill="#777A8C"/>
<path d="M86.1554 27.4669H82.8049L82.9102 27.0039H86.2272L86.1554 27.4669ZM83.9154 31.1712H83.3506L84.3079 27.0039H84.8727L83.9154 31.1712Z" fill="#777A8C"/>
<path d="M89.0944 30.9674C89.0453 31.1654 88.9575 31.3524 88.8359 31.5184C88.7052 31.6984 88.5433 31.855 88.3572 31.9815L88.094 31.7731C88.1714 31.6944 88.2433 31.6109 88.3094 31.5231C88.3734 31.4395 88.428 31.3494 88.4721 31.2545C88.5156 31.1592 88.5493 31.0599 88.5726 30.9582L88.6731 30.5276H89.214L89.0944 30.9674Z" fill="#777A8C"/>
<path d="M97.6429 29.2264L97.7386 28.7912H98.7246C98.9488 28.7962 99.1692 28.7348 99.3564 28.6152C99.5308 28.498 99.6524 28.3208 99.6962 28.1198C99.7271 28.036 99.735 27.9458 99.7191 27.8581C99.7031 27.7705 99.6639 27.6883 99.6053 27.6197C99.4347 27.5015 99.2255 27.4472 99.0166 27.4669H98.1789L97.3174 31.1712H96.7478L97.7051 27.0039H99.141C99.4824 26.9786 99.8219 27.0722 100.098 27.2678C100.205 27.3789 100.278 27.5164 100.309 27.6651C100.341 27.8138 100.329 27.9679 100.275 28.1105C100.233 28.2815 100.15 28.4403 100.031 28.5736C99.8972 28.7166 99.7343 28.8316 99.5526 28.9116C99.363 29.001 99.1591 29.0589 98.9495 29.0829L98.7198 29.2125L97.6429 29.2264ZM96.9632 31.1712L97.394 30.7081H98.3512C98.5935 30.716 98.8315 30.6442 99.0261 30.5044C99.2038 30.3683 99.3272 30.1768 99.3755 29.9627C99.409 29.8303 99.409 29.6921 99.3755 29.5598C99.3613 29.5053 99.3357 29.4542 99.3004 29.4096C99.265 29.365 99.2205 29.3279 99.1697 29.3005C99.0323 29.2324 98.8788 29.2005 98.7246 29.2079H97.9109L98.021 28.7727H99.1314L99.2128 28.9301C99.3866 28.9391 99.5534 28.9989 99.6914 29.1014C99.8136 29.1908 99.8999 29.3185 99.9355 29.4626C99.9787 29.6235 99.9787 29.7925 99.9355 29.9534C99.8679 30.3156 99.6544 30.637 99.342 30.847C99.0159 31.0552 98.6318 31.1618 98.2412 31.1526L96.9632 31.1712Z" fill="#777A8C"/>
<path d="M103.808 31.1712H103.233L104.191 27.0039H104.765L103.808 31.1712ZM105.962 31.1712H103.693L103.798 30.7081H106.067L105.962 31.1712ZM106.11 29.2496H104.143L104.243 28.7866H106.211L106.11 29.2496ZM106.794 27.4669H104.554L104.66 27.0039H106.9L106.794 27.4669Z" fill="#777A8C"/>
<path d="M117.066 29.8515C116.98 30.108 116.846 30.3467 116.669 30.5553C116.495 30.7657 116.274 30.9351 116.023 31.0508C115.738 31.1725 115.429 31.2326 115.118 31.2267C114.823 31.2392 114.531 31.1561 114.29 30.9906C114.069 30.8231 113.916 30.5853 113.859 30.3192C113.788 29.9835 113.798 29.6366 113.888 29.3052L113.984 28.8884C114.063 28.5258 114.214 28.1814 114.429 27.8744C114.623 27.5964 114.882 27.3665 115.185 27.203C115.478 27.0444 115.807 26.9615 116.142 26.9622C116.415 26.9481 116.685 27.0091 116.923 27.1382C117.112 27.241 117.258 27.4049 117.334 27.6012C117.412 27.8357 117.433 28.0844 117.397 28.3282H116.827C116.862 28.0907 116.817 27.8487 116.698 27.6383C116.619 27.5455 116.517 27.4739 116.401 27.4301C116.285 27.3863 116.16 27.3719 116.037 27.3882C115.797 27.3846 115.562 27.4472 115.357 27.5688C115.158 27.7113 114.992 27.8947 114.874 28.1059C114.73 28.3466 114.625 28.6074 114.563 28.8792L114.467 29.3052C114.402 29.5483 114.378 29.8 114.395 30.0506C114.412 30.2489 114.496 30.4362 114.635 30.5831C114.711 30.6536 114.801 30.7077 114.9 30.742C114.999 30.7763 115.104 30.79 115.209 30.7822C115.416 30.7894 115.622 30.7514 115.812 30.6711C115.97 30.5978 116.106 30.4881 116.209 30.3516C116.327 30.1988 116.42 30.0304 116.487 29.8515H117.066Z" fill="#777A8C"/>
<path d="M124.002 29.2311C123.913 29.6137 123.751 29.9766 123.523 30.3007C123.329 30.5827 123.07 30.8173 122.767 30.986C122.475 31.146 122.145 31.229 121.809 31.2267C121.507 31.2385 121.21 31.1539 120.962 30.986C120.733 30.8162 120.574 30.5734 120.512 30.3007C120.427 29.9489 120.427 29.5828 120.512 29.2311L120.575 28.9625C120.663 28.58 120.825 28.2171 121.053 27.8929C121.253 27.61 121.517 27.3742 121.824 27.203C122.116 27.043 122.446 26.96 122.781 26.9622C123.086 26.9491 123.387 27.0337 123.638 27.203C123.866 27.3741 124.022 27.6191 124.078 27.8929C124.15 28.2476 124.137 28.6135 124.04 28.9625L124.002 29.2311ZM123.489 28.9579C123.563 28.6845 123.582 28.4002 123.547 28.1198C123.524 27.9197 123.425 27.735 123.269 27.6012C123.102 27.4773 122.895 27.415 122.685 27.4253C122.456 27.4249 122.231 27.4858 122.034 27.6012C121.82 27.7329 121.64 27.9103 121.508 28.1198C121.348 28.3788 121.235 28.6622 121.173 28.9579L121.106 29.2311C121.033 29.5046 121.016 29.7895 121.058 30.0692C121.079 30.2707 121.18 30.4564 121.34 30.587C121.5 30.7175 121.706 30.7826 121.915 30.7683C122.151 30.7705 122.384 30.7079 122.585 30.5878C122.797 30.4579 122.973 30.2799 123.097 30.0692C123.253 29.809 123.365 29.5259 123.427 29.2311L123.489 28.9579Z" fill="#777A8C"/>
<path d="M128.577 27.0178L128.07 29.5506L127.692 31.1712H127.122L128.08 27.0039L128.577 27.0178ZM128.826 27.0178L129.434 30.4118L131.626 27.0178H132.182L129.477 31.1851H129.042L128.266 27.0178H128.826ZM132.363 27.0178L131.406 31.1851H130.837L131.215 29.5645L131.885 27.0317L132.363 27.0178Z" fill="#777A8C"/>
<path d="M135.934 29.5413L136.04 29.0783H137.183C137.376 29.0847 137.567 29.05 137.743 28.9764C137.889 28.9121 138.016 28.8133 138.112 28.6893C138.206 28.5654 138.272 28.4233 138.303 28.2726C138.337 28.1403 138.337 28.0021 138.303 27.8698C138.269 27.7436 138.187 27.6345 138.074 27.5642C137.919 27.4771 137.74 27.4368 137.562 27.4484H136.547L135.685 31.1526H135.116L136.073 26.9854H137.657C137.929 26.9748 138.199 27.0305 138.442 27.1474C138.633 27.2475 138.778 27.4125 138.849 27.6105C138.915 27.825 138.915 28.0534 138.849 28.268C138.795 28.5164 138.682 28.7493 138.519 28.9486C138.354 29.1387 138.144 29.2866 137.906 29.3792C137.633 29.4807 137.342 29.5294 137.049 29.5228L135.934 29.5413Z" fill="#777A8C"/>
<path d="M142.219 31.1712H141.644L142.602 27.0039H143.171L142.219 31.1712ZM144.373 31.1712H142.104L142.209 30.7081H144.473L144.373 31.1712ZM144.516 29.2496H142.549L142.654 28.7866H144.621L144.516 29.2496ZM145.205 27.4669H142.965L143.071 27.0039H145.306L145.205 27.4669Z" fill="#777A8C"/>
<path d="M151.682 27.4669H148.379L148.484 27.0039H151.801L151.682 27.4669ZM149.441 31.1712H148.858L149.815 27.0039H150.38L149.441 31.1712Z" fill="#777A8C"/>
<path d="M154.788 31.1712H154.213L155.171 27.0039H155.74L154.788 31.1712Z" fill="#777A8C"/>
<path d="M162.365 27.4669H159.048L159.148 27.0039H162.47L162.365 27.4669ZM160.125 31.1712H159.56L160.517 27.0039H161.082L160.125 31.1712Z" fill="#777A8C"/>
<path d="M165.471 31.1712H164.897L165.854 27.0039H166.424L165.471 31.1712Z" fill="#777A8C"/>
<path d="M170.822 30.56V31.1851H170.396L169.779 27.0178H170.396L170.822 30.56ZM172.833 27.0317H173.455L170.899 31.199H170.458L170.75 30.5739L172.833 27.0317Z" fill="#777A8C"/>
<path d="M176.355 31.1712H175.786L176.743 27.0039H177.318L176.355 31.1712ZM178.509 31.1712H176.245L176.346 30.7081H178.615L178.509 31.1712ZM178.658 29.2496H176.691L176.796 28.7866H178.763L178.658 29.2496ZM179.342 27.4669H177.097L177.198 27.0039H179.438L179.342 27.4669Z" fill="#777A8C"/>
</g>
<defs>
<linearGradient id="paint0_linear_560_177" x1="13.0862" y1="33.0928" x2="34.4512" y2="-3.49316" gradientUnits="userSpaceOnUse">
<stop stop-color="#00AA95"/>
<stop offset="1" stop-color="#0387BD"/>
</linearGradient>
<linearGradient id="paint1_linear_560_177" x1="778.261" y1="2141.55" x2="2125.18" y2="-576.471" gradientUnits="userSpaceOnUse">
<stop stop-color="#00AA95"/>
<stop offset="1" stop-color="#0387BD"/>
</linearGradient>
<clipPath id="clip0_560_177">
<rect width="199" height="32" fill="white"/>
</clipPath>
</defs>
</svg>
