<svg xmlns="http://www.w3.org/2000/svg" xmlns:xlink="http://www.w3.org/1999/xlink" viewBox="0 0 244.52 184.21"><defs><style>.cls-1{fill:#253c7d;}.cls-2{fill:url(#linear-gradient);}.cls-3{fill:url(#linear-gradient-2);}.cls-4{font-size:9.82px;fill:#777a8c;font-family:Heebo-Regular, Heebo;letter-spacing:0.45em;}.cls-5{letter-spacing:0.42em;}.cls-6{letter-spacing:0.46em;}</style><linearGradient id="linear-gradient" x1="103.6" y1="118.18" x2="181.13" y2="-10.23" gradientUnits="userSpaceOnUse"><stop offset="0" stop-color="#00aa95"/><stop offset="1" stop-color="#0387bd"/></linearGradient><linearGradient id="linear-gradient-2" x1="91.45" y1="110.85" x2="168.99" y2="-17.57" xlink:href="#linear-gradient"/></defs><g id="Layer_2" data-name="Layer 2"><g id="Layer_1-2" data-name="Layer 1"><path class="cls-1" d="M22.06,146.81a6,6,0,0,1-3.87,4.44c2.53.82,2.95,3.68,2.67,5.13-1,5.13-5.18,6.77-9.95,6.77H0l4.54-23H15.45C20,140.14,23,142.18,22.06,146.81Zm-17,12.3h6.64c1.77,0,4.42-.59,4.85-2.76s-1.91-3.16-3.68-3.16H6.24ZM7,149.38h6.64c2.73,0,3.84-1.15,4.1-2.47.21-1-.29-2.82-3.06-2.82H8Z"/><path class="cls-1" d="M43.44,160.26A14.64,14.64,0,0,1,34,163.68c-8.55,0-11-5.89-9.85-11.87a14.72,14.72,0,0,1,14.58-12.13,9.71,9.71,0,0,1,7.76,3.52L43.06,146a6.49,6.49,0,0,0-5.12-2.17,9.59,9.59,0,0,0-9.5,8c-.72,3.81.7,7.79,6.38,7.79a10.25,10.25,0,0,0,6.25-2.33Z"/><path class="cls-1" d="M62.38,155.07a10.29,10.29,0,0,1-10.11,8.44c-5.26,0-7.67-3.78-6.75-8.44a10.32,10.32,0,0,1,10-8.45C60.73,146.62,63.29,150.43,62.38,155.07Zm-12.85,0c-.49,2.46.54,4.76,3.46,4.76a5.59,5.59,0,0,0,5.35-4.76c.48-2.44-.77-4.8-3.46-4.8A5.67,5.67,0,0,0,49.53,155.07Z"/><path class="cls-1" d="M74.33,163.15,76,154.47c.42-2.13-.31-4.07-2.51-4.07s-3.84,1.94-4.26,4.07l-1.71,8.68h-4l3.2-16.24h3.72l-.1,2a5.83,5.83,0,0,1,4.72-2.23c1.94,0,3.72.79,4.2,3a7.28,7.28,0,0,1,6-2.95c4.6,0,6.31,2.82,5.35,7.69l-1.73,8.74h-4l1.73-8.74c.42-2.14-.11-3.95-2.28-3.95a4.71,4.71,0,0,0-4.31,4l-1.71,8.68Z"/><path class="cls-1" d="M91.34,169.92l4.54-23h3.74l-.18,2.23a8,8,0,0,1,5.78-2.6c5,0,7.58,3.72,6.64,8.49s-4.67,8.48-9.86,8.48c-1.71,0-4.14-.53-4.94-2.31l-1.71,8.68Zm16.51-14.85c.5-2.54-.8-4.61-3.7-4.61a5.59,5.59,0,0,0-5.51,4.61,3.6,3.6,0,0,0,3.7,4.6A5.73,5.73,0,0,0,107.85,155.07Z"/><path class="cls-1" d="M118,156.48c-.13,2,1.32,3.45,4.15,3.45a8,8,0,0,0,4.64-1.51l2.06,2.53a12,12,0,0,1-7.48,2.63c-5.59,0-8.23-3.45-7.21-8.65a10.3,10.3,0,0,1,10.29-8.48c5.42,0,8.15,3.36,6.21,10Zm9.47-3.32c.15-2.1-1.29-3.16-3.59-3.16a5.54,5.54,0,0,0-5.16,3.16Z"/><path class="cls-1" d="M141.45,142.38l-.9,4.6H145l-.68,3.45h-4.51l-1.38,7c-.3,1.55.4,2.3,1.65,2.3a5.34,5.34,0,0,0,2-.49l.44,3.42a10.19,10.19,0,0,1-3.46.69c-3.54.13-5.44-1.87-4.64-5.92l1.38-7h-3l.68-3.45h3l.82-4.18Z"/><path class="cls-1" d="M152,146.88l-3.21,16.27h-4L148,146.88Zm-3.48-4.5c-.62,3.12,4.11,3.12,4.73,0S149.17,139.25,148.56,142.38Z"/><path class="cls-1" d="M162.2,142.38l-.91,4.6h4.47l-.68,3.45h-4.5l-1.38,7c-.31,1.55.4,2.3,1.64,2.3a5.34,5.34,0,0,0,2-.49l.44,3.42a10.19,10.19,0,0,1-3.45.69c-3.55.13-5.45-1.87-4.65-5.92l1.38-7h-3l.68-3.45h3l.82-4.18Z"/><path class="cls-1" d="M172.78,146.88l-3.21,16.27h-4l3.22-16.27Zm-3.48-4.5c-.62,3.12,4.12,3.12,4.73,0S169.92,139.25,169.3,142.38Z"/><path class="cls-1" d="M193.19,146.91l-10.12,16.31h-4.34L175,146.91h4.37l1.17,5.36,1.15,6.84,3.8-6.77,3.31-5.43Z"/><path class="cls-1" d="M196.67,156.48c-.14,2,1.32,3.45,4.15,3.45a8,8,0,0,0,4.63-1.51l2.07,2.53a12,12,0,0,1-7.49,2.63c-5.59,0-8.23-3.45-7.2-8.65a10.29,10.29,0,0,1,10.28-8.48c5.43,0,8.15,3.36,6.21,10Zm9.46-3.32c.15-2.1-1.29-3.16-3.59-3.16a5.55,5.55,0,0,0-5.16,3.16Z"/><path class="cls-1" d="M216.14,161.08c-.62,3.12-5.35,3.12-4.73,0S216.76,158,216.14,161.08Z"/><path class="cls-1" d="M226.27,146.88l-3.21,16.27h-4l3.21-16.27Zm-3.48-4.5c-.62,3.12,4.12,3.12,4.73,0S223.41,139.25,222.79,142.38Z"/><path class="cls-1" d="M238.61,163.15l1.68-8.48c.48-2.46-.5-4.34-3.06-4.34a5.45,5.45,0,0,0-5,4.54l-1.63,8.28h-4l3.21-16.24h3.58l-.17,2.21a9,9,0,0,1,5.8-2.44c3.81,0,6.31,2.86,5.3,8l-1.68,8.51Z"/><path class="cls-2" d="M185.35,18.45,143,96.82l-39.59-.15a8.61,8.61,0,0,1-7.57-4.23l-1.58-2.66,44.46.08L181.84,9.73Z"/><path class="cls-3" d="M192.94,37.24l-41.17,76.91-65.93,0a11,11,0,0,1-9.45-5.4L61.47,83.57a22,22,0,0,1-.23-22.06L90.87,8.63A17,17,0,0,1,105.48,0h72.27L134.22,79.62,96.75,80.89A7.67,7.67,0,0,1,90,69.17l14.14-22.59-18-.8L124,15.53l7.63,32.74-15-.79,3.56-5.74,3.86.28-3.72-15.93L102,40.67l13.1.64L96.24,72.67a1,1,0,0,0,.9,1.52l32.71-1.58,35.9-65.49-59.93.09A10.29,10.29,0,0,0,97,12.43L66.41,66.89A11.12,11.12,0,0,0,66.52,78l14.7,24.85A8.41,8.41,0,0,0,88.45,107h59.1l41.92-78.33Z"/><text class="cls-4" transform="matrix(0.98, 0, -0.22, 0.98, 21.94, 180.99)">B SMA<tspan class="cls-5" x="51.46" y="0">R</tspan><tspan x="61.67" y="0">T, BE COMP</tspan><tspan class="cls-6" x="158.13" y="0">E</tspan><tspan x="168.23" y="0">TITIVE</tspan></text></g></g></svg>